<?xml version="1.0" encoding="UTF-8" standalone="no"?>
<svg
   xmlns:dc="http://purl.org/dc/elements/1.1/"
   xmlns:cc="http://creativecommons.org/ns#"
   xmlns:rdf="http://www.w3.org/1999/02/22-rdf-syntax-ns#"
   xmlns:svg="http://www.w3.org/2000/svg"
   xmlns="http://www.w3.org/2000/svg"
   width="3.2337372cm"
   height="1.8575304cm"
   viewBox="0 0 32.337372 18.575305"
   version="1.1"
   id="svg4699">
  <defs
     id="defs4693">
    <pattern
       patternTransform="translate(108,3414)"
       patternUnits="userSpaceOnUse"
       x="0"
       y="0"
       width="252"
       height="143.998"
       id="pattern520">
      <g
         id="g478">
        <g
           clip-path="url(#clipPath450)"
           id="g476">
          <g
             transform="translate(310.0879,27.6979)"
             id="g474">
            <path
               d="m 0,0 c -7.065,-18.604 -6.77,-36.99 0.867,-55.295 -5.942,7.536 -13.082,13.628 -21.43,18.277 -8.335,4.642 -17.26,7.499 -26.756,8.618 9.439,1.414 18.267,4.547 26.445,9.441 C -12.688,-14.061 -5.743,-7.763 0,0 m -65.813,-28.689 c -19.441,-3.146 -35.195,-12.588 -47.164,-28.23 7.002,18.427 6.709,36.809 -0.867,54.979 12.426,-15.258 28.486,-24.196 48.031,-26.749 m 4.846,-7.791 c -7.061,-18.543 -6.781,-36.927 0.797,-55.149 -12.452,15.274 -28.504,24.203 -48.212,26.767 9.536,1.389 18.375,4.53 26.564,9.432 8.197,4.907 15.144,11.219 20.851,18.95 m 8.094,71.031 C -40.449,19.283 -24.37,10.34 -4.675,7.779 -14.148,6.397 -22.995,3.267 -31.192,-1.636 -39.403,-6.548 -46.358,-12.866 -52.07,-20.6 c 7.069,18.568 6.777,36.976 -0.803,55.151 M -109.382,6.204 c 9.376,1.356 18.222,4.492 26.419,9.391 8.21,4.908 15.167,11.228 20.879,18.965 -7.057,-18.541 -6.777,-36.921 0.755,-55.033 -1.45,1.618 -2.961,3.421 -4.599,5.099 -1.65,1.691 -3.369,3.328 -5.166,4.862 -1.787,1.524 -3.657,2.966 -5.587,4.306 -1.94,1.346 -3.952,2.603 -6.016,3.751 -2.061,1.147 -4.19,2.193 -6.356,3.129 -2.165,0.935 -4.385,1.765 -6.631,2.483 -2.235,0.715 -4.515,1.312 -6.807,1.817 -2.302,0.507 -4.643,0.836 -6.891,1.23 m 58.487,-97.689 c 6.999,18.398 6.716,36.783 -0.861,54.984 12.468,-15.287 28.542,-24.224 48.046,-26.745 -19.433,-3.138 -35.224,-12.576 -47.185,-28.239 M -56.576,41.887 C -33.265,42.162 -9.42,29.662 3.369,8.524 c -10.914,0.025 -21.258,2.388 -31.009,7.18 -12.106,5.951 -21.723,14.698 -28.936,26.183 m -59.818,-107.499 c 12.254,-0.036 23.726,-2.994 34.386,-8.95 10.589,-5.916 19.08,-14.07 25.558,-24.441 -11.023,0.012 -21.403,2.427 -31.205,7.244 -14.563,7.156 -23.9,18.04 -28.739,26.147 m -1.11,1.772 c -5.492,9.538 -8.618,19.722 -9.325,30.606 -0.872,13.424 1.897,26.095 8.239,38.062 5.544,-9.648 8.681,-19.952 9.342,-30.975 0.799,-13.297 -1.981,-25.837 -8.256,-37.693 M 4.442,6.704 c 11.04,-18.406 13.745,-45.212 1.094,-68.592 -6.082,10.602 -9.257,21.971 -9.455,34.132 -0.197,12.175 2.616,23.656 8.361,34.46 M 4.505,-63.77 c -5.466,-9.438 -12.691,-17.21 -21.719,-23.255 -11.208,-7.506 -23.594,-11.46 -37.174,-11.959 5.617,9.657 13.017,17.521 22.26,23.654 13.757,9.127 28.237,11.493 36.633,11.56 m -62.044,34.63 c -5.508,-9.514 -12.752,-17.304 -21.809,-23.358 -11.193,-7.483 -23.56,-11.423 -37.117,-11.928 4.89,8.472 11.193,15.595 18.987,21.361 11.834,8.754 25.145,13.344 39.939,13.925 m -1.172,70.992 C -71.382,19.525 -95.242,7.066 -117.551,6.676 c 5.459,9.419 12.672,17.159 21.657,23.225 13.139,8.87 27.053,11.77 37.183,11.951 M -117.545,5.395 c 23.133,0.298 47.111,-12.119 59.942,-33.358 -10.917,0.024 -21.259,2.385 -31.008,7.179 -12.104,5.952 -21.723,14.694 -28.934,26.179 m 62.08,-33.275 c 5.491,9.47 12.753,17.25 21.812,23.326 C -20.862,4.025 -7.297,7.062 3.411,7.312 -2.073,-2.17 -9.336,-9.949 -18.389,-16.027 -31.709,-24.969 -45.711,-27.74 -55.465,-27.88 M 4.542,-62.523 c -12.267,0.043 -23.677,2.989 -34.308,8.866 -11.802,6.524 -20.431,15.844 -25.665,24.527 9.62,0 18.827,-1.845 27.615,-5.621 13.632,-5.858 24.373,-15.125 32.358,-27.772 m -61.034,32.725 c 12.998,-22.178 11.87,-49.073 1.059,-68.529 -12.649,21.485 -12.213,48.355 -1.059,68.529 m -1.111,71.055 c 13.784,-23.701 11.048,-50.756 1.047,-68.525 -12.67,21.556 -12.177,48.395 -1.047,68.525 m -1.01,1.815 c -0.196,-0.023 -0.392,-0.061 -0.589,-0.065 -3.132,-0.067 -6.237,-0.421 -9.319,-0.946 -4.201,-0.716 -8.311,-1.794 -12.321,-3.249 -4.681,-1.7 -9.143,-3.847 -13.379,-6.468 -4.144,-2.565 -7.987,-5.521 -11.524,-8.871 -3.766,-3.567 -7.108,-7.497 -10.024,-11.79 -2.61,-3.842 -4.831,-7.897 -6.646,-12.168 -2.085,-4.904 -3.606,-9.982 -4.56,-15.23 -0.623,-3.425 -1.007,-6.875 -1.122,-10.35 -0.18,-5.446 0.245,-10.847 1.295,-16.199 0.925,-4.716 2.299,-9.293 4.139,-13.729 1.956,-4.718 4.393,-9.174 7.306,-13.372 3.521,-5.072 7.632,-9.608 12.319,-13.625 2.671,-2.29 5.497,-4.372 8.478,-6.234 3.615,-2.259 7.4,-4.189 11.362,-5.774 3.031,-1.212 6.124,-2.228 9.286,-3.02 2.825,-0.707 5.682,-1.282 8.582,-1.586 2.116,-0.222 4.239,-0.427 6.364,-0.515 2.951,-0.123 5.901,-0.009 8.846,0.25 3.267,0.288 6.499,0.799 9.689,1.539 4.04,0.936 7.974,2.215 11.8,3.831 4.233,1.787 8.257,3.957 12.065,6.518 4.648,3.125 8.87,6.755 12.673,10.875 4.729,5.123 8.628,10.813 11.696,17.065 2.848,5.803 4.859,11.895 6.059,18.252 0.671,3.554 1.076,7.141 1.197,10.754 0.177,5.332 -0.225,10.625 -1.227,15.87 -0.672,3.513 -1.591,6.959 -2.775,10.331 C 9.353,0.02 7.151,4.637 4.454,9.019 c -2.49,4.043 -5.352,7.804 -8.586,11.276 -3.313,3.555 -6.956,6.742 -10.921,9.555 -3.039,2.157 -6.227,4.073 -9.566,5.73 -4.515,2.241 -9.213,4.003 -14.098,5.246 -4.463,1.136 -8.99,1.868 -13.591,2.113 -0.508,0.027 -1.014,0.087 -1.52,0.133 l -4.785,0 z"
               style="fill:#000000;fill-opacity:1;fill-rule:nonzero;stroke:none"
               id="path472" />
          </g>
        </g>
      </g>
      <g
         id="g486">
        <g
           clip-path="url(#clipPath454)"
           id="g484">
          <g
             transform="translate(58.088,27.6979)"
             id="g482">
            <path
               d="m 0,0 c -7.065,-18.604 -6.77,-36.99 0.867,-55.295 -5.942,7.536 -13.082,13.628 -21.43,18.277 -8.335,4.642 -17.26,7.499 -26.756,8.618 9.439,1.414 18.267,4.547 26.445,9.441 C -12.688,-14.061 -5.743,-7.763 0,0 m -65.813,-28.689 c -19.442,-3.146 -35.195,-12.588 -47.164,-28.23 7.001,18.427 6.709,36.809 -0.867,54.979 12.426,-15.258 28.486,-24.196 48.031,-26.749 m 4.846,-7.791 c -7.061,-18.543 -6.781,-36.927 0.796,-55.149 -12.451,15.274 -28.503,24.203 -48.211,26.767 9.536,1.389 18.375,4.53 26.564,9.432 8.197,4.907 15.144,11.219 20.851,18.95 m 8.094,71.031 C -40.449,19.283 -24.37,10.34 -4.675,7.779 -14.148,6.397 -22.995,3.267 -31.192,-1.636 -39.403,-6.548 -46.358,-12.866 -52.07,-20.6 c 7.069,18.568 6.777,36.976 -0.803,55.151 M -109.382,6.204 c 9.376,1.356 18.222,4.492 26.419,9.391 8.209,4.908 15.167,11.228 20.879,18.965 -7.057,-18.541 -6.777,-36.921 0.755,-55.033 -1.45,1.618 -2.961,3.421 -4.599,5.099 -1.651,1.691 -3.369,3.328 -5.166,4.862 -1.787,1.524 -3.658,2.966 -5.587,4.306 -1.94,1.346 -3.953,2.603 -6.016,3.751 -2.061,1.147 -4.19,2.193 -6.356,3.129 -2.165,0.935 -4.385,1.765 -6.631,2.483 -2.235,0.715 -4.515,1.312 -6.807,1.817 -2.302,0.507 -4.643,0.836 -6.891,1.23 m 58.487,-97.689 c 6.999,18.398 6.716,36.783 -0.861,54.984 12.468,-15.287 28.542,-24.224 48.046,-26.745 -19.433,-3.138 -35.224,-12.576 -47.185,-28.239 M -56.576,41.887 C -33.265,42.162 -9.42,29.662 3.369,8.524 c -10.914,0.025 -21.258,2.388 -31.009,7.18 -12.106,5.951 -21.723,14.698 -28.936,26.183 m -59.818,-107.499 c 12.254,-0.036 23.725,-2.994 34.386,-8.95 10.589,-5.916 19.08,-14.07 25.558,-24.441 -11.023,0.012 -21.403,2.427 -31.205,7.244 -14.563,7.156 -23.9,18.04 -28.739,26.147 m -1.11,1.772 c -5.492,9.538 -8.618,19.722 -9.325,30.606 -0.873,13.424 1.897,26.095 8.239,38.062 5.544,-9.648 8.681,-19.952 9.342,-30.975 0.799,-13.297 -1.981,-25.837 -8.256,-37.693 M 4.442,6.704 c 11.04,-18.406 13.745,-45.212 1.094,-68.592 -6.082,10.602 -9.257,21.971 -9.455,34.132 -0.198,12.175 2.616,23.656 8.361,34.46 M 4.505,-63.77 c -5.466,-9.438 -12.692,-17.21 -21.719,-23.255 -11.209,-7.506 -23.594,-11.46 -37.174,-11.959 5.617,9.657 13.017,17.521 22.26,23.654 13.757,9.127 28.237,11.493 36.633,11.56 m -62.044,34.63 c -5.508,-9.514 -12.752,-17.304 -21.809,-23.358 -11.193,-7.483 -23.56,-11.423 -37.118,-11.928 4.891,8.472 11.194,15.595 18.988,21.361 11.834,8.754 25.145,13.344 39.939,13.925 m -1.172,70.992 C -71.382,19.525 -95.242,7.066 -117.551,6.676 c 5.459,9.419 12.672,17.159 21.657,23.225 13.139,8.87 27.053,11.77 37.183,11.951 M -117.545,5.395 c 23.133,0.298 47.111,-12.119 59.942,-33.358 -10.917,0.024 -21.259,2.385 -31.008,7.179 -12.104,5.952 -21.723,14.694 -28.934,26.179 m 62.08,-33.275 c 5.491,9.47 12.753,17.25 21.812,23.326 C -20.862,4.025 -7.297,7.062 3.411,7.312 -2.073,-2.17 -9.336,-9.949 -18.389,-16.027 -31.709,-24.969 -45.711,-27.74 -55.465,-27.88 M 4.542,-62.523 c -12.267,0.043 -23.677,2.989 -34.308,8.866 -11.802,6.524 -20.431,15.844 -25.665,24.527 9.62,0 18.827,-1.845 27.615,-5.621 13.632,-5.858 24.373,-15.125 32.358,-27.772 m -61.034,32.725 c 12.998,-22.178 11.87,-49.073 1.059,-68.529 -12.65,21.485 -12.213,48.355 -1.059,68.529 m -1.111,71.055 c 13.784,-23.701 11.048,-50.756 1.047,-68.525 -12.67,21.556 -12.177,48.395 -1.047,68.525 m -1.01,1.815 c -0.196,-0.023 -0.392,-0.061 -0.589,-0.065 -3.132,-0.067 -6.237,-0.421 -9.319,-0.946 -4.201,-0.716 -8.311,-1.794 -12.321,-3.249 -4.681,-1.7 -9.143,-3.847 -13.379,-6.468 -4.144,-2.565 -7.987,-5.521 -11.524,-8.871 -3.766,-3.567 -7.108,-7.497 -10.024,-11.79 -2.61,-3.842 -4.831,-7.897 -6.646,-12.168 -2.085,-4.904 -3.606,-9.982 -4.56,-15.23 -0.623,-3.425 -1.007,-6.875 -1.122,-10.35 -0.18,-5.446 0.245,-10.847 1.295,-16.199 0.925,-4.716 2.299,-9.293 4.139,-13.729 1.956,-4.718 4.393,-9.174 7.306,-13.372 3.521,-5.072 7.632,-9.608 12.319,-13.625 2.671,-2.29 5.497,-4.372 8.478,-6.234 3.615,-2.259 7.4,-4.189 11.362,-5.774 3.031,-1.212 6.124,-2.228 9.286,-3.02 2.825,-0.707 5.682,-1.282 8.582,-1.586 2.116,-0.222 4.239,-0.427 6.364,-0.515 2.951,-0.123 5.901,-0.009 8.846,0.25 3.267,0.288 6.499,0.799 9.689,1.539 4.04,0.936 7.974,2.215 11.8,3.831 4.233,1.787 8.257,3.957 12.065,6.518 4.648,3.125 8.869,6.755 12.673,10.875 4.729,5.123 8.628,10.813 11.696,17.065 2.848,5.803 4.859,11.895 6.059,18.252 0.671,3.554 1.076,7.141 1.197,10.754 0.177,5.332 -0.225,10.625 -1.227,15.87 -0.672,3.513 -1.591,6.959 -2.775,10.331 C 9.353,0.02 7.151,4.637 4.454,9.019 c -2.49,4.043 -5.352,7.804 -8.586,11.276 -3.313,3.555 -6.956,6.742 -10.921,9.555 -3.039,2.157 -6.227,4.073 -9.566,5.73 -4.515,2.241 -9.213,4.003 -14.098,5.246 -4.463,1.136 -8.99,1.868 -13.591,2.113 -0.508,0.027 -1.014,0.087 -1.52,0.133 l -4.785,0 z"
               style="fill:#000000;fill-opacity:1;fill-rule:nonzero;stroke:none"
               id="path480" />
          </g>
        </g>
      </g>
      <g
         id="g494">
        <g
           clip-path="url(#clipPath458)"
           id="g492">
          <g
             transform="translate(310.0879,171.696)"
             id="g490">
            <path
               d="m 0,0 c -7.065,-18.604 -6.77,-36.99 0.867,-55.295 -5.942,7.536 -13.082,13.628 -21.43,18.277 -8.335,4.642 -17.26,7.499 -26.756,8.618 9.439,1.414 18.267,4.547 26.445,9.441 C -12.688,-14.061 -5.743,-7.763 0,0 m -65.813,-28.689 c -19.441,-3.146 -35.195,-12.588 -47.164,-28.23 7.002,18.427 6.709,36.809 -0.867,54.979 12.426,-15.258 28.486,-24.196 48.031,-26.749 m 4.846,-7.791 c -7.061,-18.543 -6.781,-36.927 0.797,-55.149 -12.452,15.274 -28.504,24.203 -48.212,26.767 9.536,1.389 18.375,4.53 26.564,9.432 8.197,4.907 15.144,11.219 20.851,18.95 m 8.094,71.031 C -40.449,19.283 -24.37,10.34 -4.675,7.779 -14.148,6.397 -22.995,3.267 -31.192,-1.636 -39.403,-6.548 -46.358,-12.866 -52.07,-20.6 c 7.069,18.568 6.777,36.976 -0.803,55.151 M -109.382,6.204 c 9.376,1.356 18.222,4.492 26.419,9.391 8.21,4.908 15.167,11.228 20.879,18.965 -7.057,-18.541 -6.777,-36.921 0.755,-55.033 -1.45,1.618 -2.961,3.421 -4.599,5.099 -1.65,1.691 -3.369,3.328 -5.166,4.862 -1.787,1.524 -3.657,2.966 -5.587,4.306 -1.94,1.346 -3.952,2.603 -6.016,3.751 -2.061,1.147 -4.19,2.193 -6.356,3.129 -2.165,0.935 -4.385,1.765 -6.631,2.483 -2.235,0.715 -4.515,1.312 -6.807,1.817 -2.302,0.507 -4.643,0.836 -6.891,1.23 m 58.487,-97.689 c 6.999,18.398 6.716,36.783 -0.861,54.984 12.468,-15.287 28.542,-24.224 48.046,-26.745 -19.433,-3.138 -35.224,-12.576 -47.185,-28.239 M -56.576,41.887 C -33.265,42.162 -9.42,29.662 3.369,8.524 c -10.914,0.025 -21.258,2.388 -31.009,7.18 -12.106,5.951 -21.723,14.698 -28.936,26.183 m -59.818,-107.499 c 12.254,-0.036 23.726,-2.994 34.386,-8.95 10.589,-5.916 19.08,-14.07 25.558,-24.441 -11.023,0.012 -21.403,2.427 -31.205,7.244 -14.563,7.156 -23.9,18.04 -28.739,26.147 m -1.11,1.772 c -5.492,9.538 -8.618,19.722 -9.325,30.606 -0.872,13.424 1.897,26.095 8.239,38.062 5.544,-9.648 8.681,-19.952 9.342,-30.975 0.799,-13.297 -1.981,-25.837 -8.256,-37.693 M 4.442,6.704 c 11.04,-18.406 13.745,-45.212 1.094,-68.592 -6.082,10.602 -9.257,21.971 -9.455,34.132 -0.197,12.175 2.616,23.656 8.361,34.46 M 4.505,-63.77 c -5.466,-9.438 -12.691,-17.21 -21.719,-23.255 -11.208,-7.506 -23.594,-11.46 -37.174,-11.959 5.617,9.657 13.017,17.521 22.26,23.654 13.757,9.127 28.237,11.493 36.633,11.56 m -62.044,34.63 c -5.508,-9.514 -12.752,-17.304 -21.809,-23.358 -11.193,-7.483 -23.56,-11.423 -37.117,-11.928 4.89,8.472 11.193,15.595 18.987,21.361 11.834,8.754 25.145,13.344 39.939,13.925 m -1.172,70.992 C -71.382,19.525 -95.242,7.066 -117.551,6.676 c 5.459,9.419 12.672,17.159 21.657,23.225 13.139,8.87 27.053,11.77 37.183,11.951 M -117.545,5.395 c 23.133,0.298 47.111,-12.119 59.942,-33.358 -10.917,0.024 -21.259,2.385 -31.008,7.179 -12.104,5.952 -21.723,14.694 -28.934,26.179 m 62.08,-33.275 c 5.491,9.47 12.753,17.25 21.812,23.326 C -20.862,4.025 -7.297,7.062 3.411,7.312 -2.073,-2.17 -9.336,-9.949 -18.389,-16.027 -31.709,-24.969 -45.711,-27.74 -55.465,-27.88 M 4.542,-62.523 c -12.267,0.043 -23.677,2.989 -34.308,8.866 -11.802,6.524 -20.431,15.844 -25.665,24.527 9.62,0 18.827,-1.845 27.615,-5.621 13.632,-5.858 24.373,-15.125 32.358,-27.772 m -61.034,32.725 c 12.998,-22.178 11.87,-49.073 1.059,-68.529 -12.649,21.485 -12.213,48.355 -1.059,68.529 m -1.111,71.055 c 13.784,-23.701 11.048,-50.756 1.047,-68.525 -12.67,21.556 -12.177,48.395 -1.047,68.525 m -1.01,1.815 c -0.196,-0.023 -0.392,-0.061 -0.589,-0.065 -3.132,-0.067 -6.237,-0.421 -9.319,-0.946 -4.201,-0.716 -8.311,-1.794 -12.321,-3.249 -4.681,-1.7 -9.143,-3.847 -13.379,-6.468 -4.144,-2.565 -7.987,-5.521 -11.524,-8.871 -3.766,-3.567 -7.108,-7.497 -10.024,-11.79 -2.61,-3.842 -4.831,-7.897 -6.646,-12.168 -2.085,-4.904 -3.606,-9.982 -4.56,-15.23 -0.623,-3.425 -1.007,-6.875 -1.122,-10.35 -0.18,-5.446 0.245,-10.847 1.295,-16.199 0.925,-4.716 2.299,-9.293 4.139,-13.729 1.956,-4.718 4.393,-9.174 7.306,-13.371 3.521,-5.073 7.632,-9.609 12.319,-13.626 2.671,-2.29 5.497,-4.372 8.478,-6.234 3.615,-2.259 7.4,-4.189 11.362,-5.774 3.031,-1.212 6.124,-2.228 9.286,-3.02 2.825,-0.707 5.682,-1.282 8.582,-1.586 2.116,-0.221 4.239,-0.427 6.364,-0.515 2.951,-0.123 5.901,-0.009 8.846,0.25 3.267,0.288 6.499,0.799 9.689,1.539 4.04,0.936 7.974,2.215 11.8,3.831 4.233,1.787 8.257,3.957 12.065,6.518 4.648,3.125 8.87,6.755 12.673,10.875 4.729,5.123 8.628,10.814 11.696,17.065 2.848,5.803 4.859,11.895 6.059,18.252 0.671,3.554 1.076,7.141 1.197,10.754 0.177,5.332 -0.225,10.625 -1.227,15.87 -0.672,3.513 -1.591,6.959 -2.775,10.331 C 9.353,0.02 7.151,4.637 4.454,9.019 c -2.49,4.043 -5.352,7.804 -8.586,11.276 -3.313,3.555 -6.956,6.742 -10.921,9.555 -3.039,2.157 -6.227,4.073 -9.566,5.73 -4.515,2.241 -9.213,4.003 -14.098,5.246 -4.463,1.136 -8.99,1.868 -13.591,2.113 -0.508,0.027 -1.014,0.087 -1.52,0.133 l -4.785,0 z"
               style="fill:#000000;fill-opacity:1;fill-rule:nonzero;stroke:none"
               id="path488" />
          </g>
        </g>
      </g>
      <g
         id="g502">
        <g
           clip-path="url(#clipPath462)"
           id="g500">
          <g
             transform="translate(184.0879,99.6969)"
             id="g498">
            <path
               d="m 0,0 c -7.065,-18.604 -6.77,-36.99 0.867,-55.295 -5.942,7.536 -13.082,13.628 -21.43,18.277 -8.335,4.642 -17.26,7.499 -26.756,8.618 9.439,1.414 18.267,4.547 26.445,9.441 C -12.688,-14.061 -5.743,-7.763 0,0 m -65.813,-28.689 c -19.441,-3.146 -35.195,-12.588 -47.164,-28.23 7.002,18.427 6.709,36.809 -0.867,54.979 12.426,-15.258 28.486,-24.196 48.031,-26.749 m 4.846,-7.791 c -7.061,-18.543 -6.781,-36.927 0.797,-55.149 -12.452,15.274 -28.504,24.203 -48.212,26.767 9.536,1.389 18.375,4.53 26.564,9.432 8.197,4.907 15.144,11.219 20.851,18.95 m 8.094,71.031 C -40.449,19.283 -24.37,10.34 -4.675,7.779 -14.148,6.398 -22.995,3.267 -31.192,-1.636 -39.403,-6.548 -46.358,-12.866 -52.07,-20.6 c 7.069,18.568 6.777,36.976 -0.803,55.151 M -109.382,6.204 c 9.376,1.356 18.222,4.492 26.419,9.391 8.21,4.908 15.167,11.228 20.879,18.965 -7.057,-18.541 -6.777,-36.921 0.755,-55.033 -1.45,1.618 -2.961,3.421 -4.599,5.099 -1.65,1.691 -3.369,3.328 -5.166,4.862 -1.787,1.524 -3.657,2.966 -5.587,4.306 -1.94,1.346 -3.952,2.603 -6.016,3.751 -2.061,1.147 -4.19,2.193 -6.356,3.129 -2.165,0.935 -4.385,1.765 -6.631,2.483 -2.235,0.715 -4.515,1.312 -6.807,1.817 -2.302,0.507 -4.643,0.836 -6.891,1.23 m 58.487,-97.689 c 6.999,18.398 6.716,36.783 -0.861,54.984 12.468,-15.287 28.542,-24.224 48.046,-26.745 -19.433,-3.138 -35.224,-12.576 -47.185,-28.239 M -56.576,41.887 C -33.265,42.162 -9.42,29.662 3.369,8.524 c -10.914,0.025 -21.258,2.388 -31.009,7.18 -12.106,5.951 -21.723,14.698 -28.936,26.183 m -59.818,-107.499 c 12.254,-0.036 23.726,-2.994 34.386,-8.95 10.589,-5.916 19.08,-14.07 25.558,-24.441 -11.023,0.012 -21.403,2.427 -31.205,7.244 -14.563,7.156 -23.9,18.039 -28.739,26.147 m -1.11,1.772 c -5.492,9.538 -8.618,19.722 -9.325,30.606 -0.873,13.424 1.897,26.095 8.239,38.062 5.544,-9.648 8.681,-19.952 9.342,-30.975 0.799,-13.297 -1.981,-25.837 -8.256,-37.693 M 4.442,6.704 c 11.04,-18.406 13.745,-45.212 1.094,-68.592 -6.082,10.602 -9.257,21.971 -9.455,34.132 -0.197,12.175 2.616,23.656 8.361,34.46 M 4.505,-63.77 c -5.466,-9.438 -12.691,-17.21 -21.719,-23.256 -11.208,-7.505 -23.594,-11.459 -37.174,-11.958 5.617,9.657 13.017,17.521 22.26,23.654 13.757,9.127 28.237,11.493 36.633,11.56 m -62.044,34.63 c -5.508,-9.514 -12.752,-17.304 -21.809,-23.358 -11.193,-7.483 -23.56,-11.423 -37.117,-11.928 4.89,8.472 11.193,15.595 18.987,21.361 11.834,8.754 25.145,13.344 39.939,13.925 m -1.172,70.992 C -71.382,19.525 -95.242,7.066 -117.551,6.676 c 5.459,9.419 12.672,17.159 21.657,23.225 13.139,8.87 27.053,11.77 37.183,11.951 M -117.545,5.395 c 23.133,0.298 47.111,-12.119 59.942,-33.358 -10.917,0.024 -21.259,2.385 -31.008,7.179 -12.104,5.952 -21.723,14.694 -28.934,26.179 m 62.08,-33.275 c 5.491,9.47 12.753,17.25 21.812,23.326 C -20.862,4.025 -7.297,7.062 3.411,7.312 -2.073,-2.17 -9.336,-9.949 -18.389,-16.027 -31.709,-24.969 -45.711,-27.74 -55.465,-27.88 M 4.542,-62.523 c -12.267,0.043 -23.677,2.989 -34.308,8.866 -11.802,6.524 -20.431,15.844 -25.665,24.527 9.62,0 18.827,-1.845 27.615,-5.621 13.632,-5.858 24.373,-15.125 32.358,-27.772 m -61.034,32.725 c 12.998,-22.178 11.87,-49.073 1.059,-68.529 -12.65,21.485 -12.213,48.355 -1.059,68.529 m -1.111,71.055 c 13.784,-23.701 11.048,-50.756 1.047,-68.525 -12.67,21.556 -12.177,48.395 -1.047,68.525 m -1.01,1.815 c -0.196,-0.023 -0.392,-0.061 -0.589,-0.065 -3.132,-0.067 -6.237,-0.421 -9.319,-0.946 -4.201,-0.716 -8.311,-1.794 -12.321,-3.249 -4.681,-1.7 -9.143,-3.847 -13.379,-6.468 -4.144,-2.565 -7.987,-5.521 -11.524,-8.871 -3.766,-3.567 -7.108,-7.497 -10.024,-11.79 -2.61,-3.842 -4.831,-7.897 -6.646,-12.168 -2.085,-4.904 -3.606,-9.982 -4.56,-15.23 -0.623,-3.425 -1.007,-6.875 -1.122,-10.35 -0.18,-5.446 0.245,-10.847 1.295,-16.199 0.925,-4.716 2.299,-9.293 4.139,-13.729 1.956,-4.718 4.393,-9.174 7.306,-13.372 3.521,-5.072 7.632,-9.608 12.319,-13.625 2.671,-2.29 5.497,-4.372 8.478,-6.234 3.615,-2.259 7.4,-4.189 11.362,-5.774 3.031,-1.212 6.124,-2.228 9.286,-3.02 2.825,-0.707 5.682,-1.282 8.582,-1.586 2.116,-0.222 4.239,-0.427 6.364,-0.515 2.951,-0.123 5.901,-0.009 8.846,0.25 3.267,0.288 6.499,0.799 9.689,1.539 4.04,0.936 7.974,2.215 11.8,3.831 4.233,1.787 8.257,3.957 12.065,6.518 4.648,3.125 8.87,6.755 12.673,10.875 4.729,5.123 8.628,10.813 11.696,17.065 2.848,5.803 4.859,11.895 6.059,18.252 0.671,3.554 1.076,7.141 1.197,10.754 0.177,5.332 -0.225,10.625 -1.227,15.87 -0.672,3.513 -1.591,6.959 -2.775,10.331 C 9.353,0.02 7.151,4.637 4.454,9.019 c -2.49,4.043 -5.352,7.804 -8.586,11.276 -3.313,3.555 -6.956,6.742 -10.921,9.555 -3.039,2.157 -6.227,4.073 -9.566,5.73 -4.515,2.241 -9.213,4.003 -14.098,5.246 -4.463,1.135 -8.99,1.868 -13.591,2.113 -0.508,0.027 -1.014,0.087 -1.52,0.133 l -4.785,0 z"
               style="fill:#000000;fill-opacity:1;fill-rule:nonzero;stroke:none"
               id="path496" />
          </g>
        </g>
      </g>
      <g
         id="g510">
        <g
           clip-path="url(#clipPath466)"
           id="g508">
          <g
             transform="translate(58.088,171.696)"
             id="g506">
            <path
               d="m 0,0 c -7.065,-18.604 -6.77,-36.99 0.867,-55.295 -5.942,7.536 -13.082,13.628 -21.43,18.277 -8.335,4.642 -17.26,7.499 -26.756,8.618 9.439,1.414 18.267,4.547 26.445,9.441 C -12.688,-14.061 -5.743,-7.763 0,0 m -65.813,-28.689 c -19.442,-3.146 -35.195,-12.588 -47.164,-28.23 7.001,18.427 6.709,36.809 -0.867,54.979 12.426,-15.258 28.486,-24.196 48.031,-26.749 m 4.846,-7.791 c -7.061,-18.543 -6.781,-36.927 0.796,-55.149 -12.451,15.274 -28.503,24.203 -48.211,26.767 9.536,1.389 18.375,4.53 26.564,9.432 8.197,4.907 15.144,11.219 20.851,18.95 m 8.094,71.031 C -40.449,19.283 -24.37,10.34 -4.675,7.779 -14.148,6.397 -22.995,3.267 -31.192,-1.636 -39.403,-6.548 -46.358,-12.866 -52.07,-20.6 c 7.069,18.568 6.777,36.976 -0.803,55.151 M -109.382,6.204 c 9.376,1.356 18.222,4.492 26.419,9.391 8.209,4.908 15.167,11.228 20.879,18.965 -7.057,-18.541 -6.777,-36.921 0.755,-55.033 -1.45,1.618 -2.961,3.421 -4.599,5.099 -1.651,1.691 -3.369,3.328 -5.166,4.862 -1.787,1.524 -3.658,2.966 -5.587,4.306 -1.94,1.346 -3.953,2.603 -6.016,3.751 -2.061,1.147 -4.19,2.193 -6.356,3.129 -2.165,0.935 -4.385,1.765 -6.631,2.483 -2.235,0.715 -4.515,1.312 -6.807,1.817 -2.302,0.507 -4.643,0.836 -6.891,1.23 m 58.487,-97.689 c 6.999,18.398 6.716,36.783 -0.861,54.984 12.468,-15.287 28.542,-24.224 48.046,-26.745 -19.433,-3.138 -35.224,-12.576 -47.185,-28.239 M -56.576,41.887 C -33.265,42.162 -9.42,29.662 3.369,8.524 c -10.914,0.025 -21.258,2.388 -31.009,7.18 -12.106,5.951 -21.723,14.698 -28.936,26.183 m -59.818,-107.499 c 12.254,-0.036 23.725,-2.994 34.386,-8.95 10.589,-5.916 19.08,-14.07 25.558,-24.441 -11.023,0.012 -21.403,2.427 -31.205,7.244 -14.563,7.156 -23.9,18.04 -28.739,26.147 m -1.11,1.772 c -5.492,9.538 -8.618,19.722 -9.325,30.606 -0.873,13.424 1.897,26.095 8.239,38.062 5.544,-9.648 8.681,-19.952 9.342,-30.975 0.799,-13.297 -1.981,-25.837 -8.256,-37.693 M 4.442,6.704 c 11.04,-18.406 13.745,-45.212 1.094,-68.592 -6.082,10.602 -9.257,21.971 -9.455,34.132 -0.198,12.175 2.616,23.656 8.361,34.46 M 4.505,-63.77 c -5.466,-9.438 -12.692,-17.21 -21.719,-23.255 -11.209,-7.506 -23.594,-11.46 -37.174,-11.959 5.617,9.657 13.017,17.521 22.26,23.654 13.757,9.127 28.237,11.493 36.633,11.56 m -62.044,34.63 c -5.508,-9.514 -12.752,-17.304 -21.809,-23.358 -11.193,-7.483 -23.56,-11.423 -37.118,-11.928 4.891,8.472 11.194,15.595 18.988,21.361 11.834,8.754 25.145,13.344 39.939,13.925 m -1.172,70.992 C -71.382,19.525 -95.242,7.066 -117.551,6.676 c 5.459,9.419 12.672,17.159 21.657,23.225 13.139,8.87 27.053,11.77 37.183,11.951 M -117.545,5.395 c 23.133,0.298 47.111,-12.119 59.942,-33.358 -10.917,0.024 -21.259,2.385 -31.008,7.179 -12.104,5.952 -21.723,14.694 -28.934,26.179 m 62.08,-33.275 c 5.491,9.47 12.753,17.25 21.812,23.326 C -20.862,4.025 -7.297,7.062 3.411,7.312 -2.073,-2.17 -9.336,-9.949 -18.389,-16.027 -31.709,-24.969 -45.711,-27.74 -55.465,-27.88 M 4.542,-62.523 c -12.267,0.043 -23.677,2.989 -34.308,8.866 -11.802,6.524 -20.431,15.844 -25.665,24.527 9.62,0 18.827,-1.845 27.615,-5.621 13.632,-5.858 24.373,-15.125 32.358,-27.772 m -61.034,32.725 c 12.998,-22.178 11.87,-49.073 1.059,-68.529 -12.65,21.485 -12.213,48.355 -1.059,68.529 m -1.111,71.055 c 13.784,-23.701 11.048,-50.756 1.047,-68.525 -12.67,21.556 -12.177,48.395 -1.047,68.525 m -1.01,1.815 c -0.196,-0.023 -0.392,-0.061 -0.589,-0.065 -3.132,-0.067 -6.237,-0.421 -9.319,-0.946 -4.201,-0.716 -8.311,-1.794 -12.321,-3.249 -4.681,-1.7 -9.143,-3.847 -13.379,-6.468 -4.144,-2.565 -7.987,-5.521 -11.524,-8.871 -3.766,-3.567 -7.108,-7.497 -10.024,-11.79 -2.61,-3.842 -4.831,-7.897 -6.646,-12.168 -2.085,-4.904 -3.606,-9.982 -4.56,-15.23 -0.623,-3.425 -1.007,-6.875 -1.122,-10.35 -0.18,-5.446 0.245,-10.847 1.295,-16.199 0.925,-4.716 2.299,-9.293 4.139,-13.729 1.956,-4.718 4.393,-9.174 7.306,-13.371 3.521,-5.073 7.632,-9.609 12.319,-13.626 2.671,-2.29 5.497,-4.372 8.478,-6.234 3.615,-2.259 7.4,-4.189 11.362,-5.774 3.031,-1.212 6.124,-2.228 9.286,-3.02 2.825,-0.707 5.682,-1.282 8.582,-1.586 2.116,-0.221 4.239,-0.427 6.364,-0.515 2.951,-0.123 5.901,-0.009 8.846,0.25 3.267,0.288 6.499,0.799 9.689,1.539 4.04,0.936 7.974,2.215 11.8,3.831 4.233,1.787 8.257,3.957 12.065,6.518 4.648,3.125 8.869,6.755 12.673,10.875 4.729,5.123 8.628,10.814 11.696,17.065 2.848,5.803 4.859,11.895 6.059,18.252 0.671,3.554 1.076,7.141 1.197,10.754 0.177,5.332 -0.225,10.625 -1.227,15.87 -0.672,3.513 -1.591,6.959 -2.775,10.331 C 9.353,0.02 7.151,4.637 4.454,9.019 c -2.49,4.043 -5.352,7.804 -8.586,11.276 -3.313,3.555 -6.956,6.742 -10.921,9.555 -3.039,2.157 -6.227,4.073 -9.566,5.73 -4.515,2.241 -9.213,4.003 -14.098,5.246 -4.463,1.136 -8.99,1.868 -13.591,2.113 -0.508,0.027 -1.014,0.087 -1.52,0.133 l -4.785,0 z"
               style="fill:#000000;fill-opacity:1;fill-rule:nonzero;stroke:none"
               id="path504" />
          </g>
        </g>
      </g>
      <g
         id="g518">
        <g
           clip-path="url(#clipPath470)"
           id="g516">
          <g
             transform="translate(184.0879,243.695)"
             id="g514">
            <path
               d="m 0,0 c -7.065,-18.604 -6.77,-36.99 0.867,-55.295 -5.942,7.536 -13.082,13.628 -21.43,18.277 -8.335,4.642 -17.26,7.499 -26.756,8.618 9.439,1.414 18.267,4.547 26.445,9.441 C -12.688,-14.061 -5.743,-7.763 0,0 m -65.813,-28.689 c -19.441,-3.146 -35.195,-12.588 -47.164,-28.23 7.002,18.427 6.709,36.809 -0.867,54.979 12.426,-15.258 28.486,-24.196 48.031,-26.749 m 4.846,-7.791 c -7.061,-18.543 -6.781,-36.927 0.797,-55.149 -12.452,15.274 -28.504,24.203 -48.212,26.767 9.536,1.389 18.375,4.53 26.564,9.432 8.197,4.907 15.144,11.219 20.851,18.95 m 8.094,71.031 C -40.449,19.283 -24.37,10.34 -4.675,7.779 -14.148,6.397 -22.995,3.267 -31.192,-1.636 -39.403,-6.548 -46.358,-12.866 -52.07,-20.6 c 7.069,18.568 6.777,36.976 -0.803,55.151 M -109.382,6.204 c 9.376,1.356 18.222,4.492 26.419,9.391 8.21,4.908 15.167,11.228 20.879,18.965 -7.057,-18.541 -6.777,-36.921 0.755,-55.033 -1.45,1.618 -2.961,3.421 -4.599,5.099 -1.65,1.691 -3.369,3.328 -5.166,4.862 -1.787,1.524 -3.657,2.966 -5.587,4.306 -1.94,1.346 -3.952,2.603 -6.016,3.751 -2.061,1.147 -4.19,2.193 -6.356,3.129 -2.165,0.935 -4.385,1.765 -6.631,2.483 -2.235,0.715 -4.515,1.312 -6.807,1.817 -2.302,0.507 -4.643,0.836 -6.891,1.23 m 58.487,-97.689 c 6.999,18.398 6.716,36.783 -0.861,54.984 12.468,-15.287 28.542,-24.224 48.046,-26.745 -19.433,-3.138 -35.224,-12.576 -47.185,-28.239 M -56.576,41.887 C -33.265,42.162 -9.42,29.662 3.369,8.524 c -10.914,0.025 -21.258,2.388 -31.009,7.18 -12.106,5.951 -21.723,14.698 -28.936,26.183 m -59.818,-107.499 c 12.254,-0.036 23.726,-2.994 34.386,-8.95 10.589,-5.916 19.08,-14.07 25.558,-24.441 -11.023,0.012 -21.403,2.427 -31.205,7.244 -14.563,7.156 -23.9,18.04 -28.739,26.147 m -1.11,1.772 c -5.492,9.538 -8.618,19.722 -9.325,30.606 -0.873,13.424 1.897,26.095 8.239,38.062 5.544,-9.648 8.681,-19.952 9.342,-30.975 0.799,-13.297 -1.981,-25.837 -8.256,-37.693 M 4.442,6.704 c 11.04,-18.406 13.745,-45.212 1.094,-68.592 -6.082,10.602 -9.257,21.971 -9.455,34.132 -0.197,12.175 2.616,23.656 8.361,34.46 M 4.505,-63.77 c -5.466,-9.438 -12.691,-17.21 -21.719,-23.255 -11.208,-7.506 -23.594,-11.46 -37.174,-11.959 5.617,9.657 13.017,17.521 22.26,23.654 13.757,9.127 28.237,11.493 36.633,11.56 m -62.044,34.63 c -5.508,-9.514 -12.752,-17.304 -21.809,-23.358 -11.193,-7.483 -23.56,-11.423 -37.117,-11.928 4.89,8.472 11.193,15.595 18.987,21.361 11.834,8.754 25.145,13.344 39.939,13.925 m -1.172,70.992 C -71.382,19.525 -95.242,7.066 -117.551,6.676 c 5.459,9.419 12.672,17.159 21.657,23.225 13.139,8.87 27.053,11.77 37.183,11.951 M -117.545,5.395 c 23.133,0.298 47.111,-12.119 59.942,-33.358 -10.917,0.024 -21.259,2.385 -31.008,7.179 -12.104,5.952 -21.723,14.694 -28.934,26.179 m 62.08,-33.275 c 5.491,9.47 12.753,17.25 21.812,23.326 C -20.862,4.025 -7.297,7.062 3.411,7.312 -2.073,-2.17 -9.336,-9.949 -18.389,-16.027 -31.709,-24.969 -45.711,-27.74 -55.465,-27.88 M 4.542,-62.523 c -12.267,0.043 -23.677,2.989 -34.308,8.866 -11.802,6.524 -20.431,15.844 -25.665,24.527 9.62,0 18.827,-1.845 27.615,-5.621 13.632,-5.858 24.373,-15.125 32.358,-27.772 m -61.034,32.725 c 12.998,-22.178 11.87,-49.073 1.059,-68.529 -12.65,21.485 -12.213,48.355 -1.059,68.529 m -1.111,71.055 c 13.784,-23.701 11.048,-50.756 1.047,-68.525 -12.67,21.556 -12.177,48.395 -1.047,68.525 m -1.01,1.815 c -0.196,-0.023 -0.392,-0.061 -0.589,-0.065 -3.132,-0.067 -6.237,-0.421 -9.319,-0.946 -4.201,-0.716 -8.311,-1.794 -12.321,-3.249 -4.681,-1.7 -9.143,-3.847 -13.379,-6.468 -4.144,-2.565 -7.987,-5.521 -11.524,-8.871 -3.766,-3.567 -7.108,-7.497 -10.024,-11.79 -2.61,-3.842 -4.831,-7.897 -6.646,-12.168 -2.085,-4.904 -3.606,-9.982 -4.56,-15.23 -0.623,-3.425 -1.007,-6.875 -1.122,-10.35 -0.18,-5.446 0.245,-10.847 1.295,-16.199 0.925,-4.716 2.299,-9.293 4.139,-13.729 1.956,-4.718 4.393,-9.174 7.306,-13.372 3.521,-5.072 7.632,-9.608 12.319,-13.625 2.671,-2.29 5.497,-4.372 8.478,-6.234 3.615,-2.259 7.4,-4.189 11.362,-5.774 3.031,-1.212 6.124,-2.228 9.286,-3.02 2.825,-0.707 5.682,-1.282 8.582,-1.586 2.116,-0.222 4.239,-0.427 6.364,-0.515 2.951,-0.123 5.901,-0.009 8.846,0.25 3.267,0.288 6.499,0.799 9.689,1.539 4.04,0.936 7.974,2.215 11.8,3.831 4.233,1.787 8.257,3.957 12.065,6.518 4.648,3.125 8.87,6.755 12.673,10.875 4.729,5.123 8.628,10.814 11.696,17.065 2.848,5.803 4.859,11.895 6.059,18.252 0.671,3.554 1.076,7.141 1.197,10.754 0.177,5.332 -0.225,10.625 -1.227,15.87 -0.672,3.513 -1.591,6.959 -2.775,10.331 C 9.353,0.02 7.151,4.637 4.454,9.019 c -2.49,4.043 -5.352,7.804 -8.586,11.276 -3.313,3.555 -6.956,6.742 -10.921,9.555 -3.039,2.157 -6.227,4.073 -9.566,5.73 -4.515,2.241 -9.213,4.003 -14.098,5.246 -4.463,1.136 -8.99,1.868 -13.591,2.113 -0.508,0.027 -1.014,0.088 -1.52,0.133 l -4.785,0 z"
               style="fill:#000000;fill-opacity:1;fill-rule:nonzero;stroke:none"
               id="path512" />
          </g>
        </g>
      </g>
    </pattern>
    <clipPath
       clipPathUnits="userSpaceOnUse"
       id="clipPath450">
      <path
         d="M 181.802,70.77 H 328.275 V -72.544 H 181.802 Z"
         id="path448" />
    </clipPath>
    <clipPath
       clipPathUnits="userSpaceOnUse"
       id="clipPath454">
      <path
         d="M -70.198,70.77 H 76.275 V -72.544 H -70.198 Z"
         id="path452" />
    </clipPath>
    <clipPath
       clipPathUnits="userSpaceOnUse"
       id="clipPath458">
      <path
         d="M 181.802,214.768 H 328.275 V 71.454 H 181.802 Z"
         id="path456" />
    </clipPath>
    <clipPath
       clipPathUnits="userSpaceOnUse"
       id="clipPath462">
      <path
         d="M 55.802,142.769 H 202.275 V -0.545 H 55.802 Z"
         id="path460" />
    </clipPath>
    <clipPath
       clipPathUnits="userSpaceOnUse"
       id="clipPath466">
      <path
         d="M -70.198,214.768 H 76.275 V 71.454 H -70.198 Z"
         id="path464" />
    </clipPath>
    <clipPath
       clipPathUnits="userSpaceOnUse"
       id="clipPath470">
      <path
         d="M 55.802,286.767 H 202.275 V 143.453 H 55.802 Z"
         id="path468" />
    </clipPath>
    <clipPath
       clipPathUnits="userSpaceOnUse"
       id="clipPath458-3">
      <path
         d="M 181.802,214.768 H 328.275 V 71.454 H 181.802 Z"
         id="path456-6" />
    </clipPath>
    <clipPath
       clipPathUnits="userSpaceOnUse"
       id="clipPath458-3-6">
      <path
         d="M 181.802,214.768 H 328.275 V 71.454 H 181.802 Z"
         id="path456-6-2" />
    </clipPath>
    <clipPath
       clipPathUnits="userSpaceOnUse"
       id="clipPath458-3-6-0">
      <path
         d="M 181.802,214.768 H 328.275 V 71.454 H 181.802 Z"
         id="path456-6-2-9" />
    </clipPath>
    <clipPath
       clipPathUnits="userSpaceOnUse"
       id="clipPath458-3-6-0-2">
      <path
         d="M 181.802,214.768 H 328.275 V 71.454 H 181.802 Z"
         id="path456-6-2-9-6" />
    </clipPath>
    <clipPath
       clipPathUnits="userSpaceOnUse"
       id="clipPath458-3-6-0-2-2">
      <path
         d="M 181.802,214.768 H 328.275 V 71.454 H 181.802 Z"
         id="path456-6-2-9-6-0" />
    </clipPath>
    <clipPath
       clipPathUnits="userSpaceOnUse"
       id="clipPath458-3-6-0-23">
      <path
         d="M 181.802,214.768 H 328.275 V 71.454 H 181.802 Z"
         id="path456-6-2-9-7" />
    </clipPath>
    <clipPath
       clipPathUnits="userSpaceOnUse"
       id="clipPath458-3-6-6">
      <path
         d="M 181.802,214.768 H 328.275 V 71.454 H 181.802 Z"
         id="path456-6-2-1" />
    </clipPath>
  </defs>
  <metadata
     id="metadata4696">
    <rdf:RDF>
      <cc:Work
         rdf:about="">
        <dc:format>image/svg+xml</dc:format>
        <dc:type
           rdf:resource="http://purl.org/dc/dcmitype/StillImage" />
        <dc:title></dc:title>
      </cc:Work>
    </rdf:RDF>
  </metadata>
  <g
     id="layer1"
     transform="translate(-87.534071,-128.37903)">
    <path
       id="path6060-5"
       transform="matrix(0.26458334,0,0,0.26458334,87.534071,128.37903)"
       d="M 7.5507812 0 C 7.7099673 10.564362 5.5423454 21.553953 0.4296875 31.958984 C 0.28262007 32.186677 0.14496577 32.419552 0 32.648438 L 0 35.306641 C 0.49664317 34.398512 0.9849869 33.484707 1.4433594 32.550781 C 1.4843698 32.46722 1.5218366 32.38251 1.5625 32.298828 C 6.7442379 24.333868 13.292749 17.674008 21.222656 12.320312 C 34.361658 3.4503289 48.274294 0.55014221 58.404297 0.36914062 C 45.815572 22.55113 22.183613 34.986187 0 35.529297 L 0 36.828125 C 22.999825 36.688372 46.762085 49.076044 59.513672 70.183594 C 48.596696 70.160917 38.254856 67.797897 28.505859 63.003906 C 16.637275 57.167679 7.1626804 48.643237 0 37.486328 L 0 40.105469 C 4.621974 48.966906 7.2676833 58.36968 7.8671875 68.367188 C 7.9041382 68.982123 7.9256515 69.593378 7.9472656 70.205078 L 9.1171875 70.205078 C 8.8094057 61.487494 6.8738527 52.799947 3.2714844 44.160156 C 14.752606 58.257921 29.343798 66.94923 46.912109 70.205078 L 72.1875 70.205078 C 80.727948 68.643408 88.760092 65.657236 96.242188 61.179688 C 104.42819 56.281683 111.3722 49.983701 117.11523 42.220703 C 113.554 51.598389 111.86829 60.920651 112.04492 70.205078 L 113.20508 70.205078 C 113.2036 70.128671 113.19851 70.053032 113.19727 69.976562 C 113.00035 57.801571 115.81356 46.319631 121.55859 35.515625 C 121.78495 35.893014 122.00141 36.279713 122.2207 36.664062 L 122.2207 32.542969 C 116.90438 23.148082 113.86858 13.129124 113.17383 2.4335938 C 113.12097 1.6198643 113.08271 0.80818786 113.05664 0 L 111.91016 0 C 112.033 3.8451786 112.45613 7.6676341 113.20117 11.464844 C 114.12614 16.180825 115.49982 20.757366 117.33984 25.193359 C 118.07334 26.962618 118.87367 28.694903 119.74219 30.390625 C 117.70547 27.403315 115.45548 24.578736 112.98438 21.925781 C 109.67134 18.370795 106.02753 15.184083 102.0625 12.371094 C 99.023533 10.21408 95.83508 8.2976076 92.496094 6.640625 C 87.981108 4.399592 83.283439 2.6375423 78.398438 1.3945312 C 76.126785 0.81630212 73.836207 0.35375832 71.529297 0 L 49.630859 0 C 49.285989 0.054257457 48.940242 0.10146488 48.595703 0.16015625 C 44.394713 0.87614994 40.283441 1.9531984 36.273438 3.4082031 C 31.592439 5.1081968 27.130531 7.2559264 22.894531 9.8769531 C 18.750533 12.441929 14.908093 15.398025 11.371094 18.748047 C 8.6291833 21.345047 6.1138918 24.135323 3.8222656 27.117188 C 5.4405739 22.975758 6.6706658 18.702582 7.5019531 14.298828 C 8.1729553 10.744825 8.5782209 7.1579234 8.6992188 3.5449219 C 8.7385052 2.3614192 8.7445234 1.1796504 8.7265625 0 L 7.5507812 0 z M 60.539062 0.33398438 C 83.850055 0.058834767 107.69535 12.559275 120.48438 33.697266 C 109.57037 33.670809 99.227593 31.30765 89.476562 26.515625 C 77.370585 20.564646 67.752065 11.818986 60.539062 0.33398438 z M 59.513672 0.96289062 C 73.297684 24.663892 70.561555 51.719286 60.560547 69.488281 C 47.89055 47.932275 48.383682 21.092881 59.513672 0.96289062 z M 55.03125 7.6601562 C 47.97423 26.201157 48.255078 44.581372 55.787109 62.693359 C 54.337094 61.075381 52.825472 59.271747 51.1875 57.59375 C 49.537472 55.902752 47.818499 54.266419 46.021484 52.732422 C 44.234482 51.208403 42.365547 49.765813 40.435547 48.425781 C 38.495546 47.079778 36.481969 45.823775 34.417969 44.675781 C 32.35697 43.52877 30.228498 42.482875 28.0625 41.546875 C 25.8975 40.611895 23.67764 39.780497 21.431641 39.0625 C 19.19664 38.347489 16.917 37.751114 14.625 37.246094 C 12.322999 36.739108 9.9823737 36.409603 7.734375 36.015625 C 17.110374 34.659606 25.955346 31.524024 34.152344 26.625 C 42.362343 21.717019 49.31925 15.397151 55.03125 7.6601562 z M 64.242188 7.6699219 C 76.666212 22.937928 92.746398 31.880398 112.44141 34.441406 C 102.9684 35.82339 94.12083 38.952477 85.923828 43.855469 C 77.712842 48.767456 70.756922 55.086303 65.044922 62.820312 C 72.113923 44.252288 71.822181 25.844914 64.242188 7.6699219 z M 120.52734 34.908203 C 115.04336 44.390206 107.77959 52.170038 98.726562 58.248047 C 85.406563 67.190031 71.404406 69.959616 61.650391 70.099609 C 67.141402 60.629625 74.403892 52.849444 83.462891 46.773438 C 96.253908 38.194438 109.81934 35.158181 120.52734 34.908203 z "
       style="fill:#000000;fill-opacity:1;fill-rule:nonzero;stroke:none;stroke-width:0.99999994;opacity:0.15" />
  </g>
</svg>
